<svg width="354" height="221" viewBox="0 0 354 221" fill="none" xmlns="http://www.w3.org/2000/svg">
<path d="M263.345 221H71.913C53.3426 220.986 35.4976 213.789 22.1137 200.915C8.72979 188.041 0.844732 170.489 0.109217 151.933C-0.626298 133.377 5.84476 115.256 18.1677 101.364C30.4906 87.4711 47.71 78.884 66.221 77.4C68.8608 58.76 77.2781 41.4167 90.2887 27.81C103.299 14.2033 120.248 5.01798 138.752 1.54638C157.255 -1.92522 176.381 0.491568 193.439 8.45673C210.497 16.4219 224.628 29.5346 233.845 45.95C250.75 40.0981 269.015 39.4143 286.31 43.9857C303.605 48.5571 319.146 58.1765 330.952 71.617C342.757 85.0574 350.292 101.71 352.594 119.45C354.896 137.19 351.862 155.214 343.879 171.223C339.194 185.688 330.047 198.296 317.751 207.239C305.455 216.182 290.641 221 275.437 221H263.345Z" fill="url(#paint0_linear_240_3285)"/>
<defs>
<linearGradient id="paint0_linear_240_3285" x1="176.698" y1="0.00250244" x2="279.341" y2="248.166" gradientUnits="userSpaceOnUse">
<stop stop-color="white" stop-opacity="0.604"/>
<stop offset="1" stop-color="white" stop-opacity="0.2"/>
</linearGradient>
</defs>
</svg>
