<svg width="414" height="317" viewBox="0 0 414 317" fill="none" xmlns="http://www.w3.org/2000/svg">
<g filter="url(#filter0_f_240_3562)">
<path d="M104.701 189.357C105.332 189.375 111.736 214.605 111.736 224.409C111.736 234.213 108.586 242.162 104.701 242.162C100.816 242.162 97.666 234.214 97.666 224.41C97.666 214.606 104.066 189.34 104.701 189.357Z" fill="#42A0F0"/>
<path d="M103.628 218.779C104.656 219.136 104.968 221.356 104.326 223.739C103.684 226.123 102.33 227.765 101.302 227.409C100.274 227.053 99.9613 224.831 100.604 222.448C101.247 220.065 102.599 218.422 103.628 218.779Z" fill="white"/>
<path d="M164.632 189.357C165.263 189.375 171.667 214.605 171.667 224.409C171.667 234.213 168.517 242.162 164.632 242.162C160.747 242.162 157.597 234.214 157.597 224.41C157.597 214.606 163.997 189.34 164.632 189.357Z" fill="#42A0F0"/>
<path d="M163.559 218.779C164.586 219.136 164.899 221.356 164.257 223.739C163.615 226.123 162.261 227.765 161.233 227.409C160.205 227.053 159.892 224.831 160.535 222.448C161.178 220.065 162.53 218.422 163.559 218.779Z" fill="white"/>
<path d="M224.563 189.357C225.194 189.375 231.598 214.605 231.598 224.409C231.598 234.213 228.448 242.162 224.563 242.162C220.678 242.162 217.528 234.214 217.528 224.41C217.528 214.606 223.928 189.34 224.563 189.357Z" fill="#42A0F0"/>
<path d="M223.49 218.779C224.517 219.136 224.83 221.356 224.188 223.739C223.546 226.123 222.192 227.765 221.164 227.409C220.136 227.053 219.823 224.831 220.466 222.448C221.109 220.065 222.461 218.422 223.49 218.779Z" fill="white"/>
<path d="M284.494 186.357C285.125 186.375 291.529 211.605 291.529 221.409C291.529 231.213 288.379 239.162 284.494 239.162C280.609 239.162 277.459 231.214 277.459 221.41C277.459 211.606 283.859 186.34 284.494 186.357Z" fill="#42A0F0"/>
<path d="M283.421 215.779C284.449 216.136 284.761 218.356 284.119 220.739C283.477 223.123 282.123 224.765 281.095 224.409C280.067 224.053 279.754 221.831 280.397 219.448C281.04 217.065 282.392 215.422 283.421 215.779Z" fill="white"/>
<path d="M192.834 256.357C193.465 256.375 199.869 281.605 199.869 291.409C199.869 301.213 196.719 309.162 192.834 309.162C188.949 309.162 185.799 301.214 185.799 291.41C185.799 281.606 192.199 256.34 192.834 256.357Z" fill="#42A0F0"/>
<path d="M191.761 285.779C192.788 286.136 193.101 288.356 192.459 290.739C191.817 293.123 190.463 294.765 189.435 294.409C188.407 294.053 188.094 291.831 188.737 289.448C189.38 287.065 190.732 285.422 191.761 285.779Z" fill="white"/>
<path d="M252.765 256.357C253.396 256.375 259.8 281.605 259.8 291.409C259.8 301.213 256.65 309.162 252.765 309.162C248.88 309.162 245.73 301.214 245.73 291.41C245.73 281.606 252.13 256.34 252.765 256.357Z" fill="#42A0F0"/>
<path d="M251.692 285.779C252.72 286.136 253.032 288.356 252.39 290.739C251.748 293.123 250.394 294.765 249.366 294.409C248.338 294.053 248.025 291.831 248.668 289.448C249.311 287.065 250.663 285.422 251.692 285.779Z" fill="white"/>
<path d="M316.222 256.357C316.853 256.375 323.257 281.605 323.257 291.409C323.257 301.213 320.107 309.162 316.222 309.162C312.337 309.162 309.187 301.214 309.187 291.41C309.187 281.606 315.587 256.34 316.222 256.357Z" fill="#42A0F0"/>
<path d="M315.149 285.779C316.177 286.136 316.489 288.356 315.847 290.739C315.205 293.123 313.851 294.765 312.823 294.409C311.795 294.053 311.482 291.831 312.125 289.448C312.768 287.065 314.12 285.422 315.149 285.779Z" fill="white"/>
<path d="M132.904 259.357C133.535 259.375 139.939 284.605 139.939 294.409C139.939 304.213 136.789 312.162 132.904 312.162C129.019 312.162 125.869 304.214 125.869 294.41C125.869 284.606 132.269 259.34 132.904 259.357Z" fill="#42A0F0"/>
<path d="M131.831 288.779C132.858 289.136 133.171 291.356 132.529 293.739C131.887 296.123 130.533 297.765 129.505 297.409C128.477 297.053 128.164 294.831 128.807 292.448C129.45 290.065 130.802 288.422 131.831 288.779Z" fill="white"/>
<path d="M76.4979 256.357C77.1289 256.375 83.5329 281.605 83.5329 291.409C83.5329 301.213 80.3829 309.162 76.4979 309.162C72.6129 309.162 69.4629 301.214 69.4629 291.41C69.4629 281.606 75.8629 256.34 76.4979 256.357Z" fill="#42A0F0"/>
<path d="M75.425 285.779C76.4525 286.136 76.765 288.356 76.1231 290.739C75.4811 293.123 74.127 294.765 73.0991 294.409C72.0713 294.053 71.7582 291.831 72.4011 289.448C73.0439 287.065 74.3962 285.422 75.425 285.779Z" fill="white"/>
<g filter="url(#filter1_d_240_3562)">
<path d="M283.345 249H91.913C73.3426 248.986 55.4976 241.789 42.1137 228.915C28.7298 216.041 20.8447 198.489 20.1092 179.933C19.3737 161.377 25.8448 143.256 38.1677 129.364C50.4906 115.471 67.71 106.884 86.221 105.4C88.8608 86.76 97.2781 69.4167 110.289 55.81C123.299 42.2033 140.248 33.018 158.752 29.5464C177.255 26.0748 196.381 28.4916 213.439 36.4567C230.497 44.4219 244.628 57.5346 253.845 73.95C270.75 68.0981 289.015 67.4143 306.31 71.9857C323.605 76.5571 339.146 86.1765 350.952 99.617C362.757 113.057 370.292 129.71 372.594 147.45C374.896 165.19 371.862 183.214 363.879 199.223C359.194 213.688 350.047 226.296 337.751 235.239C325.455 244.182 310.641 249 295.437 249H283.345Z" fill="url(#paint0_linear_240_3562)"/>
<path d="M295.437 248C303.157 248 310.748 246.767 317.998 244.336C325.009 241.985 331.59 238.554 337.56 234.139C343.462 229.775 348.635 224.547 352.936 218.6C357.29 212.58 360.652 205.957 362.928 198.915L362.951 198.843L362.985 198.775C366.011 192.728 368.341 186.33 369.911 179.761C371.526 173 372.345 166.015 372.345 158.999C372.345 152.96 371.737 146.925 370.537 141.062C369.368 135.348 367.623 129.728 365.352 124.357C363.121 119.084 360.361 113.997 357.146 109.24C353.962 104.527 350.306 100.095 346.278 96.0672C342.25 92.0394 337.819 88.3828 333.106 85.1988C328.348 81.9844 323.261 79.2237 317.988 76.9932C312.617 74.7216 306.997 72.9769 301.283 71.8077C295.42 70.6078 289.385 69.9995 283.345 69.9995C273.346 69.9995 263.531 71.6452 254.172 74.8908L253.383 75.1646L252.973 74.4362C245.357 60.8943 234.279 49.5217 220.937 41.5478C214.189 37.5153 206.94 34.399 199.391 32.2857C191.602 30.1054 183.512 29 175.345 29C164.361 29 153.638 30.977 143.475 34.876C133.657 38.6427 124.65 44.0837 116.705 51.048C108.806 57.9722 102.251 66.1422 97.2213 75.3308C92.0685 84.7451 88.7006 94.9073 87.2113 105.535L87.0998 106.33L86.299 106.393C77.3408 107.094 68.7219 109.453 60.6818 113.403C52.8694 117.242 45.8932 122.434 39.947 128.834C27.7289 141.987 21 159.123 21 177.087C21 186.66 22.8748 195.947 26.5723 204.689C28.3495 208.89 30.5491 212.943 33.1102 216.734C35.6472 220.489 38.5607 224.02 41.7699 227.23C44.9791 230.439 48.5104 233.352 52.2655 235.889C56.0565 238.45 60.109 240.65 64.3106 242.427C73.0525 246.125 82.3391 248 91.9127 248H283.345H295.437ZM295.437 249H283.345H91.9127C52.1966 249 20 216.803 20 177.087C20 139.286 49.1646 108.297 86.221 105.396C92.3504 61.6573 129.917 28 175.345 28C209.048 28 238.422 46.5232 253.845 73.946C263.087 70.7407 273.012 68.9995 283.345 68.9995C333.051 68.9995 373.345 109.294 373.345 158.999C373.345 173.456 369.936 187.118 363.879 199.223C354.544 228.108 327.431 249 295.437 249Z" fill="white" fill-opacity="0.5"/>
</g>
</g>
<defs>
<filter id="filter0_f_240_3562" x="16" y="24" width="361.345" height="292.162" filterUnits="userSpaceOnUse" color-interpolation-filters="sRGB">
<feFlood flood-opacity="0" result="BackgroundImageFix"/>
<feBlend mode="normal" in="SourceGraphic" in2="BackgroundImageFix" result="shape"/>
<feGaussianBlur stdDeviation="2" result="effect1_foregroundBlur_240_3562"/>
</filter>
<filter id="filter1_d_240_3562" x="0" y="-1.52588e-05" width="413.345" height="281" filterUnits="userSpaceOnUse" color-interpolation-filters="sRGB">
<feFlood flood-opacity="0" result="BackgroundImageFix"/>
<feColorMatrix in="SourceAlpha" type="matrix" values="0 0 0 0 0 0 0 0 0 0 0 0 0 0 0 0 0 0 127 0" result="hardAlpha"/>
<feOffset dx="10" dy="2"/>
<feGaussianBlur stdDeviation="15"/>
<feColorMatrix type="matrix" values="0 0 0 0 0.501961 0 0 0 0 0.501961 0 0 0 0 0.501961 0 0 0 0.302 0"/>
<feBlend mode="normal" in2="BackgroundImageFix" result="effect1_dropShadow_240_3562"/>
<feBlend mode="normal" in="SourceGraphic" in2="effect1_dropShadow_240_3562" result="shape"/>
</filter>
<linearGradient id="paint0_linear_240_3562" x1="196.698" y1="28.0025" x2="299.341" y2="276.166" gradientUnits="userSpaceOnUse">
<stop stop-color="white" stop-opacity="0.604"/>
<stop offset="1" stop-color="white" stop-opacity="0.2"/>
</linearGradient>
</defs>
</svg>
