<svg width="414" height="310" viewBox="0 0 414 310" fill="none" xmlns="http://www.w3.org/2000/svg">
<g filter="url(#filter0_f_240_3552)">
<path d="M310.8 179.377C310.8 179.377 292.038 196.269 277.374 195.71C258.992 194.993 255.844 180.271 238.81 179.377C220.981 179.554 219.162 194.824 199.837 195.71C182.522 195.504 175.187 179.653 158.683 179.377C142.179 179.101 124.583 195.71 124.583 195.71" stroke="white" stroke-width="20" stroke-linecap="round"/>
<path d="M246.8 233.377C246.8 233.377 228.038 250.269 213.374 249.71C194.992 248.993 191.844 234.271 174.81 233.377C156.981 233.554 155.162 248.824 135.837 249.71C118.522 249.504 111.187 233.653 94.683 233.377C78.179 233.101 60.583 249.71 60.583 249.71" stroke="white" stroke-width="20" stroke-linecap="round"/>
<path d="M344.8 279.377C344.8 279.377 326.038 296.269 311.374 295.71C292.992 294.993 289.844 280.271 272.81 279.377C254.981 279.554 253.162 294.824 233.837 295.71C216.522 295.504 209.187 279.653 192.683 279.377C176.179 279.101 158.583 295.71 158.583 295.71" stroke="white" stroke-width="20" stroke-linecap="round"/>
<g filter="url(#filter1_d_240_3552)">
<path d="M283.345 249H91.913C73.3426 248.986 55.4976 241.789 42.1137 228.915C28.7298 216.041 20.8447 198.489 20.1092 179.933C19.3737 161.377 25.8448 143.256 38.1677 129.364C50.4906 115.471 67.71 106.884 86.221 105.4C88.8608 86.76 97.2781 69.4167 110.289 55.81C123.299 42.2033 140.248 33.018 158.752 29.5464C177.255 26.0748 196.381 28.4916 213.439 36.4567C230.497 44.4219 244.628 57.5346 253.845 73.95C270.75 68.098 289.015 67.4143 306.311 71.986C323.606 76.5577 339.148 86.1776 350.953 99.6186C362.759 113.06 370.293 129.713 372.594 147.453C374.896 165.194 371.861 183.218 363.877 199.227C359.192 213.69 350.045 226.298 337.749 235.24C325.453 244.182 310.641 248.999 295.437 249H283.345Z" fill="url(#paint0_linear_240_3552)"/>
<path d="M295.437 248C303.156 248 310.746 246.767 317.996 244.336C325.006 241.985 331.587 238.555 337.557 234.14C343.458 229.776 348.631 224.548 352.932 218.602C357.287 212.582 360.649 205.96 362.925 198.919L362.949 198.847L362.983 198.779C366.01 192.731 368.341 186.333 369.911 179.763C371.526 173.003 372.345 166.017 372.345 158.999C372.345 152.96 371.737 146.925 370.537 141.062C369.368 135.348 367.623 129.728 365.352 124.357C363.121 119.084 360.36 113.997 357.146 109.24C353.962 104.527 350.305 100.095 346.278 96.0671C342.25 92.0394 337.818 88.3828 333.105 85.1988C328.347 81.9844 323.261 79.2236 317.988 76.9932C312.617 74.7216 306.997 72.9769 301.283 71.8077C295.42 70.6078 289.384 69.9995 283.345 69.9995C273.346 69.9995 263.531 71.6451 254.172 74.8906L253.383 75.1645L252.973 74.4361C245.357 60.8942 234.279 49.5216 220.937 41.5478C214.189 37.5152 206.94 34.399 199.391 32.2857C191.602 30.1054 183.512 29 175.345 29C164.361 29 153.638 30.977 143.475 34.876C133.657 38.6427 124.65 44.0837 116.705 51.048C108.806 57.9722 102.251 66.1422 97.2213 75.3308C92.0685 84.7451 88.7006 94.9072 87.2113 105.535L87.0998 106.33L86.299 106.393C77.3408 107.094 68.7219 109.453 60.6818 113.403C52.8694 117.242 45.8932 122.434 39.947 128.834C27.7289 141.987 21 159.123 21 177.087C21 186.66 22.8748 195.947 26.5723 204.689C28.3495 208.89 30.5491 212.943 33.1102 216.734C35.6472 220.489 38.5607 224.02 41.7699 227.23C44.9791 230.439 48.5104 233.352 52.2655 235.889C56.0565 238.45 60.109 240.65 64.3106 242.427C73.0525 246.125 82.3391 248 91.9127 248H283.345H295.437ZM295.437 249H283.345H91.9127C52.1966 249 20 216.803 20 177.087C20 139.286 49.1646 108.297 86.221 105.396C92.3504 61.6573 129.917 28 175.345 28C209.048 28 238.422 46.5231 253.845 73.9459C263.087 70.7406 273.012 68.9995 283.345 68.9995C333.051 68.9995 373.345 109.294 373.345 158.999C373.345 173.459 369.936 187.121 363.877 199.227C354.54 228.109 327.427 249 295.437 249Z" fill="white" fill-opacity="0.5"/>
</g>
</g>
<defs>
<filter id="filter0_f_240_3552" x="16" y="24" width="361.345" height="285.723" filterUnits="userSpaceOnUse" color-interpolation-filters="sRGB">
<feFlood flood-opacity="0" result="BackgroundImageFix"/>
<feBlend mode="normal" in="SourceGraphic" in2="BackgroundImageFix" result="shape"/>
<feGaussianBlur stdDeviation="2" result="effect1_foregroundBlur_240_3552"/>
</filter>
<filter id="filter1_d_240_3552" x="0" y="-3.05176e-05" width="413.345" height="281" filterUnits="userSpaceOnUse" color-interpolation-filters="sRGB">
<feFlood flood-opacity="0" result="BackgroundImageFix"/>
<feColorMatrix in="SourceAlpha" type="matrix" values="0 0 0 0 0 0 0 0 0 0 0 0 0 0 0 0 0 0 127 0" result="hardAlpha"/>
<feOffset dx="10" dy="2"/>
<feGaussianBlur stdDeviation="15"/>
<feColorMatrix type="matrix" values="0 0 0 0 0.501961 0 0 0 0 0.501961 0 0 0 0 0.501961 0 0 0 0.302 0"/>
<feBlend mode="normal" in2="BackgroundImageFix" result="effect1_dropShadow_240_3552"/>
<feBlend mode="normal" in="SourceGraphic" in2="effect1_dropShadow_240_3552" result="shape"/>
</filter>
<linearGradient id="paint0_linear_240_3552" x1="196.698" y1="28.0025" x2="299.341" y2="276.166" gradientUnits="userSpaceOnUse">
<stop stop-color="white" stop-opacity="0.604"/>
<stop offset="1" stop-color="white" stop-opacity="0.2"/>
</linearGradient>
</defs>
</svg>
