<svg width="432" height="311" viewBox="0 0 432 311" fill="none" xmlns="http://www.w3.org/2000/svg">
<g filter="url(#filter0_f_240_3534)">
<path d="M108.148 214.763C162.548 214.763 206.648 170.439 206.648 115.763C206.648 61.0868 162.548 16.763 108.148 16.763C53.7479 16.763 9.64795 61.0868 9.64795 115.763C9.64795 170.439 53.7479 214.763 108.148 214.763Z" fill="#FA9E42"/>
<g filter="url(#filter1_f_240_3534)">
<path d="M101.03 101.684C133.767 84.2964 152.077 54.7096 141.928 35.6004C131.778 16.4911 97.0115 15.0957 64.2749 32.4835C31.5383 49.8714 13.228 79.4581 23.3778 98.5674C33.5275 117.677 68.2938 119.072 101.03 101.684Z" fill="#F8E36F"/>
</g>
<g filter="url(#filter2_d_240_3534)">
<path d="M301.993 278.763H110.561C91.9906 278.749 74.1455 271.552 60.7616 258.678C47.3777 245.804 39.4927 228.252 38.7572 209.696C38.0217 191.14 44.4927 173.019 56.8156 159.127C69.1386 145.234 86.358 136.647 104.869 135.163C107.509 116.523 115.926 99.1797 128.937 85.573C141.947 71.9663 158.896 62.781 177.4 59.3094C195.903 55.8378 215.029 58.2546 232.087 66.2197C249.145 74.1849 263.276 87.2976 272.493 103.713C289.398 97.861 307.663 97.1773 324.959 101.749C342.254 106.321 357.796 115.941 369.601 129.382C381.406 142.823 388.941 159.476 391.242 177.216C393.544 194.957 390.509 212.981 382.525 228.99C377.839 243.453 368.692 256.061 356.397 265.003C344.101 273.945 329.289 278.762 314.085 278.763H301.993Z" fill="url(#paint0_linear_240_3534)"/>
<path d="M314.085 277.763C321.804 277.763 329.394 276.53 336.644 274.099C343.654 271.748 350.235 268.318 356.205 263.903C362.106 259.539 367.279 254.311 371.58 248.365C375.935 242.345 379.297 235.723 381.573 228.682L381.597 228.61L381.631 228.542C384.658 222.494 386.989 216.096 388.559 209.526C390.174 202.766 390.993 195.78 390.993 188.762C390.993 182.723 390.385 176.688 389.185 170.825C388.016 165.111 386.271 159.491 384 154.12C381.769 148.847 379.008 143.76 375.794 139.003C372.61 134.29 368.953 129.858 364.926 125.83C360.898 121.802 356.466 118.146 351.753 114.962C346.995 111.747 341.909 108.987 336.636 106.756C331.265 104.485 325.645 102.74 319.931 101.571C314.067 100.371 308.032 99.7625 301.993 99.7625C291.994 99.7625 282.178 101.408 272.82 104.654L272.031 104.928L271.621 104.199C264.005 90.6572 252.927 79.2846 239.585 71.3108C232.837 67.2782 225.588 64.162 218.039 62.0487C210.25 59.8684 202.16 58.763 193.993 58.763C183.009 58.763 172.286 60.74 162.123 64.639C152.305 68.4057 143.298 73.8467 135.353 80.811C127.454 87.7352 120.899 95.9052 115.869 105.094C110.716 114.508 107.349 124.67 105.859 135.298L105.748 136.093L104.947 136.156C95.9887 136.857 87.3699 139.216 79.3297 143.166C71.5173 147.005 64.5411 152.197 58.5949 158.597C46.3768 171.75 39.6479 188.886 39.6479 206.85C39.6479 216.423 41.5227 225.71 45.2202 234.452C46.9974 238.653 49.1971 242.706 51.7582 246.497C54.2951 250.252 57.2087 253.783 60.4179 256.993C63.627 260.202 67.1583 263.115 70.9135 265.652C74.7044 268.213 78.757 270.413 82.9586 272.19C91.7004 275.888 100.987 277.763 110.561 277.763H301.993H314.085ZM314.085 278.763H301.993H110.561C70.8445 278.763 38.6479 246.566 38.6479 206.85C38.6479 169.049 67.8126 138.06 104.869 135.159C110.998 91.4203 148.565 57.763 193.993 57.763C227.695 57.763 257.07 76.2861 272.492 103.709C281.735 100.504 291.66 98.7625 301.993 98.7625C351.699 98.7625 391.993 139.057 391.993 188.762C391.993 203.222 388.584 216.884 382.525 228.99C373.188 257.872 346.075 278.763 314.085 278.763Z" fill="white" fill-opacity="0.5"/>
</g>
</g>
<defs>
<filter id="filter0_f_240_3534" x="5.64795" y="12.763" width="390.345" height="270" filterUnits="userSpaceOnUse" color-interpolation-filters="sRGB">
<feFlood flood-opacity="0" result="BackgroundImageFix"/>
<feBlend mode="normal" in="SourceGraphic" in2="BackgroundImageFix" result="shape"/>
<feGaussianBlur stdDeviation="2" result="effect1_foregroundBlur_240_3534"/>
</filter>
<filter id="filter1_f_240_3534" x="0.577637" y="0.303253" width="164.15" height="133.561" filterUnits="userSpaceOnUse" color-interpolation-filters="sRGB">
<feFlood flood-opacity="0" result="BackgroundImageFix"/>
<feBlend mode="normal" in="SourceGraphic" in2="BackgroundImageFix" result="shape"/>
<feGaussianBlur stdDeviation="10" result="effect1_foregroundBlur_240_3534"/>
</filter>
<filter id="filter2_d_240_3534" x="18.6479" y="29.763" width="413.345" height="281" filterUnits="userSpaceOnUse" color-interpolation-filters="sRGB">
<feFlood flood-opacity="0" result="BackgroundImageFix"/>
<feColorMatrix in="SourceAlpha" type="matrix" values="0 0 0 0 0 0 0 0 0 0 0 0 0 0 0 0 0 0 127 0" result="hardAlpha"/>
<feOffset dx="10" dy="2"/>
<feGaussianBlur stdDeviation="15"/>
<feColorMatrix type="matrix" values="0 0 0 0 0.501961 0 0 0 0 0.501961 0 0 0 0 0.501961 0 0 0 0.302 0"/>
<feBlend mode="normal" in2="BackgroundImageFix" result="effect1_dropShadow_240_3534"/>
<feBlend mode="normal" in="SourceGraphic" in2="effect1_dropShadow_240_3534" result="shape"/>
</filter>
<linearGradient id="paint0_linear_240_3534" x1="215.346" y1="57.7655" x2="317.989" y2="305.929" gradientUnits="userSpaceOnUse">
<stop stop-color="white" stop-opacity="0.604"/>
<stop offset="1" stop-color="white" stop-opacity="0.2"/>
</linearGradient>
</defs>
</svg>
